<svg id="Livello_1" data-name="Livello 1" xmlns="http://www.w3.org/2000/svg" viewBox="0 0 156.63 151.68"><defs><style>.cls-1{fill:#5981f4;opacity:0.55;isolation:isolate;}.cls-2{fill:#42495b;}</style></defs><path id="Path_27" data-name="Path 27" class="cls-1" d="M102.93,151.86H19.34A19.32,19.32,0,0,1,0,132.58v-103H102.93a19.32,19.32,0,0,1,19.34,19.28h0V132.5A19.32,19.32,0,0,1,103,151.86h-.08Z" transform="translate(0 -0.18)"/><path class="cls-2" d="M143.88,7.69H99.57A2.14,2.14,0,1,0,99.28,12h44.6a2.14,2.14,0,0,0,0-4.27Z" transform="translate(0 -0.18)"/><path class="cls-2" d="M77.92,8.31a2.14,2.14,0,1,0,0,3l0,0A2.16,2.16,0,0,0,77.92,8.31Z" transform="translate(0 -0.18)"/><path class="cls-2" d="M70.07,8.31a2.12,2.12,0,0,0-3,3,2.14,2.14,0,0,0,3.4-2.6A2.16,2.16,0,0,0,70.07,8.31Z" transform="translate(0 -0.18)"/><path class="cls-2" d="M85.76,8.31a2.12,2.12,0,0,0-3,3,2.14,2.14,0,0,0,3.4-2.6A2.16,2.16,0,0,0,85.76,8.31Z" transform="translate(0 -0.18)"/><path class="cls-2" d="M147.81.18H64.62A8.78,8.78,0,0,0,55.8,8.9V92.27A8.78,8.78,0,0,0,64.62,101h83.19a8.77,8.77,0,0,0,8.82-8.71V8.9A8.77,8.77,0,0,0,147.81.18Zm-83.19,4h83.19a4.71,4.71,0,0,1,4.73,4.68v7H59.89V8.9A4.71,4.71,0,0,1,64.62,4.22Zm83.19,92.72H64.62a4.7,4.7,0,0,1-4.73-4.67V19.89h92.65V92.27A4.7,4.7,0,0,1,147.81,96.94Z" transform="translate(0 -0.18)"/><path class="cls-2" d="M144.69,7.91H99.84a2.13,2.13,0,1,0,0,4.26h44.85a2.13,2.13,0,1,0,0-4.26Z" transform="translate(0 -0.18)"/><path class="cls-2" d="M77.93,8.53a2.2,2.2,0,0,0-3.06,0,2.13,2.13,0,0,0,1.53,3.64,2.19,2.19,0,0,0,1.53-.62,2.12,2.12,0,0,0,0-3Z" transform="translate(0 -0.18)"/><path class="cls-2" d="M70,8.53a2.2,2.2,0,0,0-3.06,0,2.13,2.13,0,0,0,1.53,3.64A2.19,2.19,0,0,0,70,11.55a2.12,2.12,0,0,0,0-3Z" transform="translate(0 -0.18)"/><path class="cls-2" d="M85.87,8.53a2.2,2.2,0,0,0-3.06,0,2.13,2.13,0,0,0,1.53,3.64,2.19,2.19,0,0,0,1.53-.62,2.12,2.12,0,0,0,0-3Z" transform="translate(0 -0.18)"/><path class="cls-2" d="M144.47,26.2H68a1.65,1.65,0,0,0-1.66,1.64V54.12A1.65,1.65,0,0,0,68,55.77h76.51a1.66,1.66,0,0,0,1.67-1.65V27.84A1.66,1.66,0,0,0,144.47,26.2ZM117.21,50.52l4-3.93,6,5.89h-8.46Zm-2.68,2h-13.3l6.65-8.76Zm-17.46,0H84.46l8.45-11.92,6.38,9Zm45.74,0H131.86l-9.5-9.37a1.68,1.68,0,0,0-2.35,0h0l-4.82,4.76-6-7.87a1.67,1.67,0,0,0-2.33-.33,1.48,1.48,0,0,0-.33.33l-5.16,6.79-7.12-10A1.66,1.66,0,0,0,92,36.35a1.6,1.6,0,0,0-.41.41L80.4,52.48H69.62v-23h73.19Z" transform="translate(0 -0.18)"/><ellipse class="cls-2" cx="116.2" cy="37.51" rx="1.66" ry="1.64"/><ellipse class="cls-2" cx="112.87" cy="60.51" rx="1.66" ry="1.64"/><ellipse class="cls-2" cx="106.22" cy="60.51" rx="1.66" ry="1.64"/><ellipse class="cls-2" cx="99.56" cy="60.51" rx="1.66" ry="1.64"/><path class="cls-2" d="M87.92,65.62H68a1.65,1.65,0,0,0-1.66,1.64V80.4A1.65,1.65,0,0,0,68,82.05h20a1.65,1.65,0,0,0,1.66-1.65V67.26A1.65,1.65,0,0,0,87.92,65.62Zm-1.66,3.29V78.3L79,72.55a1.68,1.68,0,0,0-2.08,0L69.62,78.3V68.91Zm-4.74,9.85H74.37l3.57-2.82Z" transform="translate(0 -0.18)"/><path class="cls-2" d="M116.2,65.62h-20a1.66,1.66,0,0,0-1.67,1.64V80.4a1.66,1.66,0,0,0,1.67,1.65h20a1.65,1.65,0,0,0,1.66-1.65V67.26A1.65,1.65,0,0,0,116.2,65.62Zm-1.67,3.29V78.3l-7.27-5.75a1.68,1.68,0,0,0-2.08,0L97.9,78.3V68.91Zm-4.74,9.85h-7.15l3.58-2.82Z" transform="translate(0 -0.18)"/><path class="cls-2" d="M144.47,65.62h-20a1.66,1.66,0,0,0-1.66,1.64V80.4a1.66,1.66,0,0,0,1.66,1.65h20a1.66,1.66,0,0,0,1.67-1.65V67.26A1.66,1.66,0,0,0,144.47,65.62Zm-1.66,3.29V78.3l-7.28-5.75a1.68,1.68,0,0,0-2.08,0l-7.27,5.75V68.91Zm-4.74,9.85h-7.15l3.57-2.82Z" transform="translate(0 -0.18)"/><path class="cls-2" d="M84.59,85.33H71.29a1.65,1.65,0,1,0,0,3.29h13.3a1.65,1.65,0,1,0,0-3.29Z" transform="translate(0 -0.18)"/><path class="cls-2" d="M112.87,85.33H99.56a1.65,1.65,0,1,0,0,3.29h13.31a1.65,1.65,0,1,0,0-3.29Z" transform="translate(0 -0.18)"/><path class="cls-2" d="M141.15,85.33H127.84a1.65,1.65,0,1,0,0,3.29h13.31a1.65,1.65,0,1,0,0-3.29Z" transform="translate(0 -0.18)"/></svg>