<?xml version="1.0" encoding="utf-8"?>
<!-- Generator: Adobe Illustrator 24.1.2, SVG Export Plug-In . SVG Version: 6.00 Build 0)  -->
<svg version="1.1" xmlns="http://www.w3.org/2000/svg" xmlns:xlink="http://www.w3.org/1999/xlink" x="0px" y="0px"
	 viewBox="0 0 90.2 90.2" style="enable-background:new 0 0 90.2 90.2;" xml:space="preserve">
<style type="text/css">
	.st0{fill:rgb(255,255,255);}
</style>
<g id="logo">
	<g id="testo">
		<path class="st0" d="M35.3,35.4c0,2-0.5,3.6-1.6,4.6c-1.1,1.1-2.6,1.6-4.6,1.6h-2.9c-2.4,0-4.1-0.4-5.1-1.3
			c-1-0.8-1.5-2.3-1.5-4.3V19.9h9.2c2.1,0,3.6,0.5,4.7,1.6c1,1,1.6,2.5,1.6,4.4c0,1.1-0.3,2-0.8,2.8c-0.6,0.8-1.2,1.3-1.8,1.6
			C34.3,31.2,35.3,32.9,35.3,35.4z M28.4,28.4c1.6,0,2.4-0.8,2.4-2.4c0-1.6-0.8-2.4-2.4-2.4h-4.6v4.7H28.4z M31,35.2
			c0-1-0.2-1.7-0.5-2.2c-0.3-0.5-1-0.7-1.9-0.7h-4.9v3.4c0,0.8,0.2,1.4,0.6,1.7c0.4,0.3,1.1,0.5,2.1,0.5h2.2
			C30.2,37.8,31,36.9,31,35.2z"/>
		<path class="st0" d="M54.8,41.6h-4.9l-4.2-8.1h-3.1v8.1h-4.2V24.6c0-1.6,0.4-2.8,1.1-3.6c0.8-0.7,2-1.1,3.8-1.1h3.6
			c2.2,0,3.9,0.7,5.1,2c1.3,1.3,1.9,3,1.9,5c0,1.5-0.4,2.7-1.1,3.8c-0.8,1.1-1.7,1.8-2.8,2.2L54.8,41.6z M48.8,29.1
			c0.6-0.6,0.9-1.4,0.9-2.3c0-0.9-0.3-1.7-0.8-2.2c-0.6-0.6-1.3-0.9-2.2-0.9h-2.1c-1.3,0-1.9,0.6-1.9,1.9V30h4
			C47.5,30,48.3,29.7,48.8,29.1z"/>
		<path class="st0" d="M71.8,35.2c0,2.1-0.8,3.7-2.3,4.8c-1.5,1.2-3.4,1.8-5.8,1.8c-1.9,0-3.6-0.5-5.4-1.5c-0.9-0.5-1.6-1.3-2.1-2.2
			c-0.6-1-0.8-2.1-0.8-3.3l3.8-0.2c0,1.1,0.5,2,1.4,2.6c0.9,0.6,2,0.9,3.1,0.9c2.5,0,3.8-0.9,3.8-2.7c0-1.5-0.9-2.3-2.6-2.6
			l-3.5-0.4c-1.8-0.3-3.2-0.9-4.2-1.9c-1-1-1.6-2.4-1.6-4.3c0-1.9,0.7-3.4,2.2-4.6s3.4-1.8,5.6-1.8c2.3,0,4.1,0.6,5.5,1.7
			c1.4,1.2,2.1,2.6,2.1,4.4l-3.8,0.2c-0.3-1.8-1.5-2.7-3.6-2.7c-1.2,0-2.2,0.3-2.9,0.8c-0.7,0.5-1.1,1.2-1.1,1.9
			c0,0.7,0.3,1.3,0.8,1.7c0.5,0.4,1.1,0.7,1.9,0.8l3.5,0.4C69.8,29.5,71.8,31.6,71.8,35.2z"/>
		<path class="st0" d="M32.9,72.2h-6.5c-2.4,0-4.2-0.5-5.3-1.4c-1.1-0.9-1.6-2.5-1.6-4.6V50.4h4.2v15.7c0,0.9,0.2,1.4,0.6,1.8
			c0.4,0.3,1.1,0.5,2.1,0.5h6.5V72.2z"/>
		<path class="st0" d="M53.8,72.2h-4.4l-1.2-3.8h-7.3l-1.2,3.8h-4.4l7-19.9c0.3-0.7,0.6-1.2,1-1.4c0.4-0.3,0.8-0.4,1.4-0.4
			c0.6,0,1,0.1,1.3,0.4c0.3,0.2,0.6,0.7,0.9,1.5L53.8,72.2z M47.2,64.8l-2.6-8.6L42,64.8H47.2z"/>
		<path class="st0" d="M71.5,65.9c0,2-0.5,3.6-1.6,4.6c-1.1,1.1-2.6,1.6-4.6,1.6h-2.9c-2.4,0-4.1-0.4-5.1-1.3
			c-1-0.8-1.5-2.3-1.5-4.3V50.4H65c2.1,0,3.6,0.5,4.7,1.6c1,1,1.6,2.5,1.6,4.4c0,1.1-0.3,2-0.8,2.8c-0.6,0.8-1.2,1.3-1.8,1.6
			C70.5,61.8,71.5,63.5,71.5,65.9z M64.6,58.9c1.6,0,2.4-0.8,2.4-2.4c0-1.6-0.8-2.4-2.4-2.4H60v4.7H64.6z M67.3,65.7
			c0-1-0.2-1.7-0.5-2.2c-0.3-0.5-1-0.7-1.9-0.7H60v3.4c0,0.8,0.2,1.4,0.6,1.7c0.4,0.3,1.1,0.5,2.1,0.5h2.2
			C66.5,68.4,67.3,67.5,67.3,65.7z"/>
	</g>
</g>
<g id="riquadro_1_">
	<g id="riquadro_2_">
		<path class="st0" d="M75.9,90.2H14.4C6.4,90.2,0,83.8,0,75.9V0h75.9c7.9,0,14.4,6.4,14.4,14.4v61.5C90.2,83.8,83.8,90.2,75.9,90.2
			z M4.1,4.1v71.8c0,5.7,4.6,10.3,10.3,10.3h61.5c5.7,0,10.3-4.6,10.3-10.3V14.4c0-5.7-4.6-10.3-10.3-10.3H4.1z"/>
	</g>
</g>
</svg>
