<?xml version="1.0" encoding="utf-8"?>
<!-- Generator: Adobe Illustrator 24.1.2, SVG Export Plug-In . SVG Version: 6.00 Build 0)  -->
<svg version="1.1" id="Livello_1" xmlns="http://www.w3.org/2000/svg" xmlns:xlink="http://www.w3.org/1999/xlink" x="0px" y="0px"
	 viewBox="0 0 62.8 24.2" style="enable-background:new 0 0 62.8 24.2;" xml:space="preserve">
<style type="text/css">
	.st0{fill:rgb(255,255,255)}
</style>
<g>
	<g>
		<path class="st0" d="M14.9,13.9c0,0.8-0.2,1.4-0.6,1.8c-0.4,0.4-1,0.6-1.8,0.6h-1.2c-0.9,0-1.6-0.2-2-0.5
			c-0.4-0.3-0.6-0.9-0.6-1.7V7.8h3.6c0.8,0,1.4,0.2,1.8,0.6c0.4,0.4,0.6,1,0.6,1.7c0,0.4-0.1,0.8-0.3,1.1c-0.2,0.3-0.5,0.5-0.7,0.6
			C14.5,12.3,14.9,12.9,14.9,13.9z M12.2,11.1c0.6,0,0.9-0.3,0.9-0.9c0-0.6-0.3-0.9-0.9-0.9h-1.8v1.8H12.2z M13.2,13.8
			c0-0.4-0.1-0.7-0.2-0.9c-0.1-0.2-0.4-0.3-0.7-0.3h-1.9V14c0,0.3,0.1,0.6,0.2,0.7c0.2,0.1,0.4,0.2,0.8,0.2h0.9
			C12.9,14.9,13.2,14.5,13.2,13.8z"/>
		<path class="st0" d="M22.6,16.4h-1.9L19,13.2h-1.2v3.2h-1.7V9.6c0-0.6,0.1-1.1,0.4-1.4s0.8-0.4,1.5-0.4h1.4c0.8,0,1.5,0.3,2,0.8
			c0.5,0.5,0.8,1.2,0.8,2c0,0.6-0.2,1.1-0.5,1.5s-0.7,0.7-1.1,0.9L22.6,16.4z M20.2,11.4c0.2-0.2,0.3-0.5,0.3-0.9s-0.1-0.7-0.3-0.9
			c-0.2-0.2-0.5-0.3-0.9-0.3h-0.8c-0.5,0-0.7,0.3-0.7,0.8v1.7h1.6C19.7,11.8,20,11.7,20.2,11.4z"/>
		<path class="st0" d="M29.2,13.8c0,0.8-0.3,1.4-0.9,1.9c-0.6,0.5-1.3,0.7-2.3,0.7c-0.7,0-1.4-0.2-2.1-0.6c-0.3-0.2-0.6-0.5-0.8-0.9
			c-0.2-0.4-0.3-0.8-0.3-1.3l1.5-0.1c0,0.4,0.2,0.8,0.6,1c0.4,0.2,0.8,0.4,1.2,0.4c1,0,1.5-0.4,1.5-1.1c0-0.6-0.3-0.9-1-1l-1.4-0.1
			c-0.7-0.1-1.2-0.4-1.7-0.7c-0.4-0.4-0.6-1-0.6-1.7c0-0.7,0.3-1.3,0.9-1.8s1.3-0.7,2.2-0.7c0.9,0,1.6,0.2,2.2,0.7
			c0.5,0.5,0.8,1,0.8,1.7l-1.5,0.1c-0.1-0.7-0.6-1-1.4-1c-0.5,0-0.9,0.1-1.1,0.3c-0.3,0.2-0.4,0.5-0.4,0.7c0,0.3,0.1,0.5,0.3,0.7
			c0.2,0.2,0.4,0.3,0.7,0.3l1.4,0.1C28.5,11.6,29.2,12.4,29.2,13.8z"/>
	</g>
	<g>
		<path class="st0" d="M39,16.4h-2.5c-1,0-1.7-0.2-2.1-0.6c-0.4-0.4-0.6-1-0.6-1.8V7.8h1.7V14c0,0.3,0.1,0.6,0.2,0.7
			c0.2,0.1,0.4,0.2,0.8,0.2H39V16.4z"/>
		<path class="st0" d="M47.2,16.4h-1.7L45,14.9h-2.9l-0.5,1.5h-1.7l2.7-7.8C42.7,8.3,42.9,8.1,43,8c0.1-0.1,0.3-0.2,0.5-0.2
			c0.2,0,0.4,0,0.5,0.1c0.1,0.1,0.2,0.3,0.4,0.6L47.2,16.4z M44.6,13.5l-1-3.4l-1.1,3.4H44.6z"/>
		<path class="st0" d="M54.1,13.9c0,0.8-0.2,1.4-0.6,1.8c-0.4,0.4-1,0.6-1.8,0.6h-1.2c-0.9,0-1.6-0.2-2-0.5C48.2,15.5,48,15,48,14.2
			V7.8h3.6c0.8,0,1.4,0.2,1.8,0.6c0.4,0.4,0.6,1,0.6,1.7c0,0.4-0.1,0.8-0.3,1.1c-0.2,0.3-0.5,0.5-0.7,0.6
			C53.8,12.3,54.1,12.9,54.1,13.9z M51.4,11.1c0.6,0,0.9-0.3,0.9-0.9c0-0.6-0.3-0.9-0.9-0.9h-1.8v1.8H51.4z M52.5,13.8
			c0-0.4-0.1-0.7-0.2-0.9c-0.1-0.2-0.4-0.3-0.7-0.3h-1.9V14c0,0.3,0.1,0.6,0.2,0.7c0.2,0.1,0.4,0.2,0.8,0.2h0.9
			C52.2,14.9,52.5,14.5,52.5,13.8z"/>
	</g>
</g>
<g>
	<path class="st0" d="M57.2,24.2H5.6c-3.1,0-5.6-2.5-5.6-5.6V0h57.2c3.1,0,5.6,2.5,5.6,5.6v12.9C62.8,21.6,60.3,24.2,57.2,24.2z
		 M1.6,1.6v16.9c0,2.2,1.8,4,4,4h51.6c2.2,0,4-1.8,4-4V5.6c0-2.2-1.8-4-4-4H1.6z"/>
</g>
</svg>
