<svg id="Livello_1" data-name="Livello 1" xmlns="http://www.w3.org/2000/svg" viewBox="0 0 165.35 151.86"><defs><style>.cls-1{fill:#5981f4;opacity:0.55;}.cls-2{fill:#42495b;}</style></defs><path id="Path_27" data-name="Path 27" class="cls-1" d="M102.93,151.86H19.34A19.32,19.32,0,0,1,0,132.58v-103H102.93a19.31,19.31,0,0,1,19.34,19.28v83.64A19.31,19.31,0,0,1,103,151.86Z"/><path class="cls-2" d="M143.88,7.69H99.57a2.14,2.14,0,1,0,0,4.27h44.31a2.14,2.14,0,0,0,0-4.27Z"/><path class="cls-2" d="M77.92,8.31a2.14,2.14,0,1,0,0,3,2.15,2.15,0,0,0,0-3Z"/><path class="cls-2" d="M70.07,8.31a2.15,2.15,0,0,0-3,0,2.15,2.15,0,0,0,0,3,2.14,2.14,0,1,0,3-3Z"/><path class="cls-2" d="M85.76,8.31a2.15,2.15,0,0,0-3,0,2.15,2.15,0,0,0,0,3,2.14,2.14,0,1,0,3-3Z"/><path class="cls-2" d="M164.73,88.92,147.92,72.11l2.64-2.63h0l2.64-2.63,8.3,8.3a2.14,2.14,0,0,0,3-3l-9.81-9.81a2.14,2.14,0,0,0-3,0L149.05,65l-1.28-1.28a25,25,0,0,0-37.19-33.35H69.5a2.13,2.13,0,0,0-2.14,2.13V62.34a2.14,2.14,0,0,0,2.14,2.14h40.75a24.95,24.95,0,0,0,34.5,2.21L146,68l-2.64,2.64a2.14,2.14,0,0,0,0,3l9,8.95V91.8a4.71,4.71,0,0,1-4.7,4.7H64.8a4.7,4.7,0,0,1-4.69-4.7V19.64h92.23v9.62a2.14,2.14,0,1,0,4.27,0V9a9,9,0,0,0-9-9H64.8a9,9,0,0,0-9,9V91.8a9,9,0,0,0,9,9h82.84a9,9,0,0,0,9-9v-5l5.1,5.1a2.12,2.12,0,0,0,3,0A2.14,2.14,0,0,0,164.73,88.92Zm-61.07-40.7L101,43a2.13,2.13,0,1,0-3.79,2l5,9.68a2.12,2.12,0,0,0,2.79,1,25.35,25.35,0,0,0,2.11,4.58H71.63V34.59H107.3a24.83,24.83,0,0,0-3.65,13C103.65,47.79,103.66,48,103.66,48.22Zm25,20.08a20.76,20.76,0,0,1-20.74-20.73c0-.16,0-.32,0-.48l3.93,7.58a2.13,2.13,0,0,0,1.89,1.16h0a2.15,2.15,0,0,0,1.89-1.21l4.65-9.69a2.14,2.14,0,0,0-3.85-1.85l-2.8,5.83-3-5.88a2.16,2.16,0,0,0-1.92-1.16A20.73,20.73,0,1,1,128.66,68.3ZM60.11,9a4.7,4.7,0,0,1,4.69-4.7h82.84a4.71,4.71,0,0,1,4.7,4.7v6.4H60.11Z"/><path class="cls-2" d="M94.87,42.08a2.14,2.14,0,0,0-2.85,1l-2.8,5.83-3-5.88a2.13,2.13,0,0,0-3.82,0l-2.79,5.83-3-5.88a2.13,2.13,0,1,0-3.79,2l5,9.68a2.13,2.13,0,0,0,3.82-.05l2.8-5.83,3.05,5.88a2.12,2.12,0,0,0,1.89,1.16h0a2.16,2.16,0,0,0,1.9-1.21l4.65-9.69A2.14,2.14,0,0,0,94.87,42.08Z"/><path class="cls-2" d="M143.79,42.08a2.14,2.14,0,0,0-2.85,1l-2.8,5.83-3-5.88a2.15,2.15,0,0,0-1.93-1.16,2.13,2.13,0,0,0-1.89,1.21l-2.8,5.83-3-5.88a2.13,2.13,0,1,0-3.79,2l5,9.68a2.12,2.12,0,0,0,1.89,1.16h0a2.16,2.16,0,0,0,1.9-1.21l2.79-5.83,3,5.88a2.15,2.15,0,0,0,1.9,1.16h0a2.14,2.14,0,0,0,1.89-1.21l4.65-9.69A2.14,2.14,0,0,0,143.79,42.08Z"/><path class="cls-2" d="M71,81.33a2.14,2.14,0,1,0-3,3,2.15,2.15,0,0,0,3,0,2.15,2.15,0,0,0,0-3Z"/><path class="cls-2" d="M118.4,80.7H76.83a2.14,2.14,0,1,0,0,4.27H118.4a2.14,2.14,0,1,0,0-4.27Z"/><path class="cls-2" d="M110.49,70.45H97.89a2.14,2.14,0,0,0,0,4.27h12.6a2.14,2.14,0,1,0,0-4.27Z"/><path class="cls-2" d="M88.31,70.45H69.5a2.14,2.14,0,1,0,0,4.27H88.31a2.14,2.14,0,0,0,0-4.27Z"/></svg>