<?xml version="1.0" encoding="utf-8"?>
<!-- Generator: Adobe Illustrator 24.1.3, SVG Export Plug-In . SVG Version: 6.00 Build 0)  -->
<svg version="1.1" id="Livello_1" xmlns="http://www.w3.org/2000/svg" xmlns:xlink="http://www.w3.org/1999/xlink" x="0px" y="0px"
	 viewBox="0 0 156.6 151.7" style="enable-background:new 0 0 156.6 151.7;" xml:space="preserve">
<style type="text/css">
	.st0{fill:#5981F4;enable-background:new    ;}
	.st1{fill:#FFFFFF;}
</style>
<path id="Path_27" class="st0" d="M102.9,151.7H19.3C8.7,151.7,0,143.1,0,132.4v-103h102.9c10.7,0,19.3,8.6,19.3,19.3l0,0v83.6
	C122.3,143,113.7,151.7,102.9,151.7L102.9,151.7L102.9,151.7z"/>
<path class="st1" d="M143.9,7.5H99.6c-1.2-0.1-2.2,0.8-2.3,2c-0.1,1.2,0.8,2.2,2,2.3h44.6c1.2-0.1,2.1-1.1,2-2.3
	C145.8,8.5,144.9,7.6,143.9,7.5L143.9,7.5z"/>
<path class="st1" d="M77.9,8.1c-0.8-0.8-2.2-0.9-3,0c-0.8,0.8-0.9,2.2,0,3c0.8,0.8,2.2,0.9,3,0c0,0,0,0,0,0l0,0
	C78.7,10.3,78.7,9,77.9,8.1z"/>
<path class="st1" d="M70.1,8.1c-0.8-0.8-2.2-0.8-3,0c-0.8,0.8-0.8,2.2,0,3c0.7,0.9,2.1,1.1,3,0.4c0.9-0.7,1.1-2.1,0.4-3l0,0
	C70.4,8.4,70.2,8.2,70.1,8.1z"/>
<path class="st1" d="M85.8,8.1c-0.8-0.8-2.2-0.8-3,0c-0.8,0.8-0.8,2.2,0,3c0.7,0.9,2.1,1.1,3,0.4c0.9-0.7,1.1-2.1,0.4-3l0,0
	C86,8.4,85.9,8.2,85.8,8.1z"/>
<path class="st1" d="M147.8,0H64.6c-4.8,0-8.8,3.9-8.8,8.7v83.4c0,4.8,4,8.8,8.8,8.7h83.2c4.8,0,8.8-3.9,8.8-8.7V8.7
	C156.6,3.9,152.7,0,147.8,0C147.8,0,147.8,0,147.8,0z M64.6,4h83.2c2.6,0,4.7,2.1,4.7,4.7v7H59.9v-7C59.9,6.1,62,4,64.6,4L64.6,4z
	 M147.8,96.7H64.6c-2.6,0-4.7-2.1-4.7-4.7c0,0,0,0,0,0V19.7h92.7v72.4C152.5,94.7,150.4,96.8,147.8,96.7
	C147.8,96.8,147.8,96.8,147.8,96.7L147.8,96.7z"/>
<path class="st1" d="M144.7,7.7H99.8c-1.2,0-2.1,1-2.1,2.1s1,2.1,2.1,2.1c0,0,0,0,0,0h44.9c1.2,0,2.1-1,2.1-2.1
	C146.8,8.7,145.9,7.7,144.7,7.7C144.7,7.7,144.7,7.7,144.7,7.7z"/>
<path class="st1" d="M77.9,8.3c-0.9-0.8-2.2-0.8-3.1,0c-0.8,0.8-0.8,2.2,0,3c0.4,0.4,1,0.6,1.5,0.6c0.6,0,1.1-0.2,1.5-0.6
	C78.8,10.5,78.8,9.2,77.9,8.3C77.9,8.4,77.9,8.4,77.9,8.3L77.9,8.3z"/>
<path class="st1" d="M70,8.3c-0.9-0.8-2.2-0.8-3.1,0c-0.8,0.8-0.8,2.2,0,3c0.4,0.4,1,0.6,1.5,0.6c0.6,0,1.1-0.2,1.5-0.6
	C70.8,10.5,70.8,9.2,70,8.3C70,8.4,70,8.4,70,8.3L70,8.3z"/>
<path class="st1" d="M85.9,8.3c-0.9-0.8-2.2-0.8-3.1,0c-0.8,0.8-0.8,2.2,0,3c0.4,0.4,1,0.6,1.5,0.6c0.6,0,1.1-0.2,1.5-0.6
	C86.7,10.5,86.7,9.2,85.9,8.3C85.9,8.4,85.9,8.4,85.9,8.3L85.9,8.3z"/>
<path class="st1" d="M144.5,26H68c-0.9,0-1.7,0.7-1.7,1.6c0,0,0,0,0,0v26.3c0,0.9,0.7,1.7,1.6,1.7c0,0,0,0,0,0h76.5
	c0.9,0,1.7-0.7,1.7-1.6c0,0,0,0,0,0V27.7C146.2,26.7,145.4,26,144.5,26C144.5,26,144.5,26,144.5,26z M117.2,50.3l4-3.9l6,5.9h-8.5
	L117.2,50.3z M114.5,52.3h-13.3l6.7-8.8L114.5,52.3z M97.1,52.3H84.5l8.4-11.9l6.4,9L97.1,52.3z M142.8,52.3h-10.9l-9.5-9.4
	c-0.7-0.6-1.7-0.6-2.3,0l0,0l-4.8,4.8l-6-7.9c-0.6-0.7-1.6-0.9-2.3-0.3c-0.1,0.1-0.2,0.2-0.3,0.3l-5.2,6.8l-7.1-10
	c-0.5-0.7-1.5-0.9-2.2-0.5c-0.2,0.1-0.3,0.2-0.4,0.4L80.4,52.3H69.6v-23h73.2V52.3z"/>
<ellipse class="st1" cx="116.2" cy="37.5" rx="1.7" ry="1.6"/>
<ellipse class="st1" cx="112.9" cy="60.5" rx="1.7" ry="1.6"/>
<ellipse class="st1" cx="106.2" cy="60.5" rx="1.7" ry="1.6"/>
<ellipse class="st1" cx="99.6" cy="60.5" rx="1.7" ry="1.6"/>
<path class="st1" d="M87.9,65.4H68c-0.9,0-1.7,0.7-1.7,1.6c0,0,0,0,0,0v13.1c0,0.9,0.7,1.7,1.6,1.7c0,0,0,0,0,0h20
	c0.9,0,1.7-0.7,1.7-1.6c0,0,0,0,0,0V67.1C89.7,66.2,88.9,65.4,87.9,65.4C88,65.4,87.9,65.4,87.9,65.4z M86.3,68.7v9.4L79,72.4
	c-0.6-0.5-1.5-0.5-2.1,0l-7.3,5.8v-9.4H86.3z M81.5,78.6h-7.1l3.6-2.8L81.5,78.6z"/>
<path class="st1" d="M116.2,65.4h-20c-0.9,0-1.7,0.7-1.7,1.6v13.1c0,0.9,0.8,1.7,1.7,1.7c0,0,0,0,0,0h20c0.9,0,1.7-0.7,1.7-1.6
	c0,0,0,0,0,0V67.1C117.9,66.2,117.1,65.4,116.2,65.4C116.2,65.4,116.2,65.4,116.2,65.4z M114.5,68.7v9.4l-7.3-5.8
	c-0.6-0.5-1.5-0.5-2.1,0l-7.3,5.8v-9.4H114.5z M109.8,78.6h-7.2l3.6-2.8L109.8,78.6z"/>
<path class="st1" d="M144.5,65.4h-20c-0.9,0-1.6,0.7-1.7,1.6v13.1c0,0.9,0.7,1.7,1.7,1.7h20c0.9,0,1.7-0.7,1.7-1.6c0,0,0,0,0,0V67.1
	C146.1,66.2,145.4,65.4,144.5,65.4z M142.8,68.7v9.4l-7.3-5.8c-0.6-0.5-1.5-0.5-2.1,0l-7.3,5.8v-9.4H142.8z M138.1,78.6h-7.1
	l3.6-2.8L138.1,78.6z"/>
<path class="st1" d="M84.6,85.1H71.3c-0.9-0.1-1.7,0.6-1.8,1.5s0.6,1.7,1.5,1.8c0.1,0,0.2,0,0.3,0h13.3c0.9,0.1,1.7-0.6,1.8-1.5
	s-0.6-1.7-1.5-1.8C84.8,85.1,84.7,85.1,84.6,85.1z"/>
<path class="st1" d="M112.9,85.1H99.6c-0.9-0.1-1.7,0.6-1.8,1.5s0.6,1.7,1.5,1.8c0.1,0,0.2,0,0.3,0h13.3c0.9,0.1,1.7-0.6,1.8-1.5
	s-0.6-1.7-1.5-1.8C113,85.1,113,85.1,112.9,85.1z"/>
<path class="st1" d="M141.1,85.1h-13.3c-0.9-0.1-1.7,0.6-1.8,1.5s0.6,1.7,1.5,1.8c0.1,0,0.2,0,0.3,0h13.3c0.9,0.1,1.7-0.6,1.8-1.5
	c0.1-0.9-0.6-1.7-1.5-1.8C141.3,85.1,141.2,85.1,141.1,85.1z"/>
</svg>
