<?xml version="1.0" encoding="utf-8"?>
<!-- Generator: Adobe Illustrator 24.1.3, SVG Export Plug-In . SVG Version: 6.00 Build 0)  -->
<svg version="1.1" id="Livello_1" xmlns="http://www.w3.org/2000/svg" xmlns:xlink="http://www.w3.org/1999/xlink" x="0px" y="0px"
	 viewBox="0 0 165.4 151.9" style="enable-background:new 0 0 165.4 151.9;" xml:space="preserve">
<style type="text/css">
	.st0{fill:#5981F4;enable-background:new    ;}
	.st1{fill:#FFFFFF;}
</style>
<path id="Path_27" class="st0" d="M102.9,151.9H19.3C8.7,151.9,0,143.2,0,132.6v-103h102.9c10.7,0,19.3,8.6,19.3,19.3c0,0,0,0,0,0
	v83.6C122.3,143.2,113.7,151.8,102.9,151.9C103,151.9,103,151.9,102.9,151.9L102.9,151.9z"/>
<path class="st1" d="M143.9,7.7H99.6c-1.2-0.1-2.2,0.8-2.3,2c-0.1,1.2,0.8,2.2,2,2.3c0.1,0,0.2,0,0.3,0h44.3c1.2-0.1,2.1-1.1,2-2.3
	C145.8,8.6,144.9,7.8,143.9,7.7z"/>
<path class="st1" d="M77.9,8.3c-0.8-0.8-2.2-0.9-3,0c-0.8,0.8-0.9,2.2,0,3c0.8,0.8,2.2,0.9,3,0c0,0,0,0,0,0
	C78.7,10.5,78.7,9.1,77.9,8.3z"/>
<path class="st1" d="M70.1,8.3c-0.8-0.8-2.2-0.8-3,0c-0.8,0.8-0.8,2.2,0,3c0.7,0.9,2.1,1.1,3,0.4s1.1-2.1,0.4-3
	C70.4,8.6,70.2,8.4,70.1,8.3z"/>
<path class="st1" d="M85.8,8.3c-0.8-0.8-2.2-0.8-3,0c-0.8,0.8-0.8,2.2,0,3c0.7,0.9,2.1,1.1,3,0.4s1.1-2.1,0.4-3
	C86,8.6,85.9,8.4,85.8,8.3z"/>
<path class="st1" d="M164.7,88.9l-16.8-16.8l2.6-2.6l0,0l2.6-2.6l8.3,8.3c0.9,0.7,2.3,0.5,3-0.4c0.6-0.8,0.6-1.8,0-2.6l-9.8-9.8
	c-0.8-0.8-2.2-0.8-3,0l-2.6,2.7l-1.3-1.3c8.8-10.7,7.2-26.4-3.4-35.2c-10-8.2-24.7-7.4-33.7,1.8H69.5c-1.2,0-2.1,0.9-2.1,2.1
	c0,0,0,0,0,0v29.8c0,1.2,1,2.1,2.1,2.1l0,0h40.8c9,9.9,24.3,10.9,34.5,2.2L146,68l-2.6,2.6c-0.8,0.8-0.8,2.2,0,3l9,8.9v9.2
	c0,2.6-2.1,4.7-4.7,4.7H64.8c-2.6,0-4.7-2.1-4.7-4.7V19.6h92.2v9.6c-0.1,1.2,0.8,2.2,2,2.3s2.2-0.8,2.3-2c0-0.1,0-0.2,0-0.3V9
	c0-5-4-9-9-9H64.8c-5,0-9,4-9,9v82.8c0,5,4,9,9,9h82.8c5,0,9-4,9-9v-5l5.1,5.1c0.8,0.8,2.2,0.8,3,0c0,0,0,0,0,0
	C165.5,91.1,165.5,89.7,164.7,88.9z M103.7,48.2L101,43c-0.6-1-1.8-1.4-2.9-0.9c-1,0.6-1.4,1.8-0.9,2.9l5,9.7c0.5,1,1.7,1.5,2.8,1
	c0.5,1.6,1.3,3.1,2.1,4.6H71.6V34.6h35.7c-2.4,3.9-3.7,8.4-3.7,13C103.7,47.8,103.7,48,103.7,48.2z M128.7,68.3
	c-11.4,0-20.7-9.3-20.7-20.7c0-0.2,0-0.3,0-0.5l3.9,7.6c0.4,0.7,1.1,1.2,1.9,1.2l0,0c0.8,0,1.5-0.5,1.9-1.2l4.7-9.7
	c0.4-1.1-0.1-2.3-1.2-2.8c-1-0.4-2.1,0-2.7,0.9l-2.8,5.8l-3-5.9c-0.4-0.7-1.1-1.2-1.9-1.2c3.1-11,14.6-17.4,25.6-14.2
	c11,3.1,17.4,14.6,14.2,25.6C146,62.2,137.9,68.3,128.7,68.3z M60.1,9c0-2.6,2.1-4.7,4.7-4.7h82.8c2.6,0,4.7,2.1,4.7,4.7v6.4H60.1V9
	z"/>
<path class="st1" d="M94.9,42.1c-1.1-0.5-2.3-0.1-2.8,1l-2.8,5.8l-3-5.9c-0.5-1.1-1.8-1.5-2.9-1c-0.4,0.2-0.8,0.5-1,1l-2.8,5.8
	l-3-5.9c-0.6-1-1.8-1.4-2.9-0.9c-1,0.6-1.4,1.8-0.9,2.9l5,9.7c0.5,1,1.8,1.5,2.9,0.9c0.4-0.2,0.8-0.6,1-1l2.8-5.8l3.1,5.9
	c0.4,0.7,1.1,1.2,1.9,1.2l0,0c0.8,0,1.5-0.5,1.9-1.2l4.7-9.7C96.4,43.8,96,42.6,94.9,42.1C94.9,42.1,94.9,42.1,94.9,42.1z"/>
<path class="st1" d="M143.8,42.1c-1.1-0.5-2.3-0.1-2.9,1l-2.8,5.8l-3-5.9c-0.4-0.7-1.1-1.2-1.9-1.2c-0.8,0-1.5,0.5-1.9,1.2l-2.8,5.8
	l-3-5.9c-0.6-1-1.8-1.4-2.9-0.9c-1,0.6-1.4,1.8-0.9,2.9l5,9.7c0.4,0.7,1.1,1.2,1.9,1.2l0,0c0.8,0,1.5-0.5,1.9-1.2l2.8-5.8l3,5.9
	c0.4,0.7,1.1,1.2,1.9,1.2l0,0c0.8,0,1.5-0.5,1.9-1.2l4.6-9.7C145.3,43.9,144.9,42.6,143.8,42.1C143.8,42.1,143.8,42.1,143.8,42.1z"
	/>
<path class="st1" d="M71,81.3c-0.7-0.9-2.1-1.1-3-0.4s-1.1,2.1-0.4,3c0.1,0.2,0.2,0.3,0.4,0.4c0.8,0.8,2.2,0.8,3,0
	C71.8,83.5,71.8,82.2,71,81.3z"/>
<path class="st1" d="M118.4,80.7H76.8c-1.2-0.1-2.2,0.8-2.3,2c-0.1,1.2,0.8,2.2,2,2.3c0.1,0,0.2,0,0.3,0h41.6c1.2,0.1,2.2-0.8,2.3-2
	c0.1-1.2-0.8-2.2-2-2.3C118.6,80.7,118.5,80.7,118.4,80.7z"/>
<path class="st1" d="M110.5,70.4H97.9c-1.2,0.1-2.1,1.1-2,2.3c0.1,1.1,0.9,1.9,2,2h12.6c1.2,0.1,2.2-0.8,2.3-2
	c0.1-1.2-0.8-2.2-2-2.3C110.7,70.4,110.6,70.4,110.5,70.4z"/>
<path class="st1" d="M88.3,70.4H69.5c-1.2-0.1-2.2,0.8-2.3,2c-0.1,1.2,0.8,2.2,2,2.3c0.1,0,0.2,0,0.3,0h18.8c1.2-0.1,2.1-1.1,2-2.3
	C90.2,71.4,89.4,70.5,88.3,70.4z"/>
</svg>
