<svg xmlns="http://www.w3.org/2000/svg" viewBox="0 0 452.07 328.56"><defs><style>.cls-1{fill:#f1eefd;}.cls-2{fill:#c3c8ff;}.cls-3{fill:#6876eb;}.cls-4{fill:#1c145e;}.cls-5{fill:#e9a394;}.cls-6{fill:#e37a82;}.cls-7{fill:#16005c;}.cls-8{fill:#1c145c;}.cls-9{fill:#fff;}.cls-10{fill:#5321d7;}.cls-11{fill:#6a3fdc;}.cls-12{fill:none;stroke:#1c145e;stroke-miterlimit:10;}.cls-13{fill:#110154;}.cls-14{fill:#7079f1;}</style></defs><g id="Livello_2" data-name="Livello 2"><g id="BACKGROUND"><path class="cls-1" d="M29.68,324.3s-32.69-77,8.66-135.13S54.47,79.44,127.07,28.1c93.32-66,183.34-.88,210.18,43.26s118,21.61,91.51,147.2c-20.55,97.42-5.22,101.69-5.22,101.69Z"/><path class="cls-2" d="M407.78,324.72l-.53-.85c.36-.23,36.7-23.27,37.69-51.26.47-13.27-7-25.65-22.32-36.78a120.23,120.23,0,0,0-11.15-7.23c-8,6.94-17,11.57-26,12.91-14.75,2.2-18.95-4.61-19.88-6.75-1.82-4.15-.34-9,3.76-12.26,4.55-3.65,11.54-4.94,19.69-3.63,6.84,1.09,14.27,3.91,22.2,8.4a81.57,81.57,0,0,0,22.2-33.2c5.69-16,11-47.55-17.35-78.52C388.57,85.46,356.94,87.8,329,89.86c-21.07,1.55-39.27,2.9-50.7-10.62-6.32-7.47-4.18-13.69-.91-17.81-11.26-4.57-21.23-9.67-31-14.65-19.71-10.09-38.33-19.62-65.65-24.11C136.49,15.38,89.12,30,65.61,58.3,51.52,75.23,47.92,94.86,55.2,115.05a41.13,41.13,0,0,0,8.89,14.67c13.86-5.37,27-6.4,35.69-4.55,9.38,2,14.5,5.11,14.41,8.75s-5.51,7-13.48,8.26c-9.62,1.55-25.56.12-36.89-11.29a88.65,88.65,0,0,0-15.77,8.19c-15.11,9.87-34.7,29.34-42.22,66-7.18,35,5.09,59.75,16.66,74.35A95.81,95.81,0,0,0,49.61,303l-.46.89a97.06,97.06,0,0,1-27.42-23.81C10,265.33-2.41,240.3,4.85,204.9c7.59-37,27.38-56.68,42.65-66.66a89,89,0,0,1,15.58-8.12,42.11,42.11,0,0,1-8.82-14.74c-7.41-20.54-3.75-40.5,10.58-57.72,23.73-28.53,71.49-43.32,116.15-36,27.47,4.52,46.15,14.08,65.93,24.21,9.79,5,19.83,10.15,31.18,14.73v0c10.53-11.86,41.51-18.34,52.63-11,5.52,3.65,7.56,8.4,5.45,12.71-4,8.28-21.55,12.12-47.17,3.45q-5.52-1.87-10.63-3.92c-4.35,5.29-4.11,11.08.7,16.77C290.19,91.72,308.16,90.4,329,88.86c28.14-2.08,60-4.43,87.9,26,28.71,31.35,23.33,63.28,17.57,79.52a82.56,82.56,0,0,1-22.12,33.46A127,127,0,0,1,423.21,235c15.56,11.33,23.21,24,22.73,37.62-.53,14.93-10.89,28.3-19.49,36.89A120.73,120.73,0,0,1,407.78,324.72ZM382.85,219.21A20,20,0,0,0,370,223.28c-3.74,3-5.11,7.35-3.48,11.08,1.78,4.07,7.66,7.82,18.83,6.16,8.54-1.27,17.26-5.79,25.06-12.51C401.08,222.82,391.26,219.21,382.85,219.21Zm-318-88.72c11,10.85,26.4,12.21,35.7,10.7,7.36-1.19,12.56-4.19,12.64-7.29s-4.89-5.89-13.62-7.75C91.13,124.35,78.36,125.33,64.85,130.49ZM279.09,61q4.94,2,10.25,3.77c15.15,5.13,25.58,5.28,31.66,4.51,7.22-.91,12.43-3.63,14.3-7.45s-.05-8.09-5.11-11.43C319.45,43.34,289.58,49.58,279.09,61Z"/></g><g id="OBJECTS"><path class="cls-3" d="M4.26,320H452.07a0,0,0,0,1,0,0v4.26a4.26,4.26,0,0,1-4.26,4.26H4.26A4.26,4.26,0,0,1,0,324.3v0A4.26,4.26,0,0,1,4.26,320Z"/><path class="cls-4" d="M0,320H167.92a0,0,0,0,1,0,0v4.26a4.26,4.26,0,0,1-4.26,4.26H4.26A4.26,4.26,0,0,1,0,324.3V320a0,0,0,0,1,0,0Z"/><path class="cls-4" d="M229.92,157.51c-19,36.5-40.34,51.37-40.34,51.37L208,238.3l32.19-33.44Z"/><path class="cls-4" d="M277,148.8l-47.09,8.71c-.61,18.15-3,30.19-5.85,46.31-4.47,25.33,5.63,39.78,4.11,48-6,32.42.89,68.2.89,68.2h81.28s2.46-136.44-11.14-166.21Z"/><rect class="cls-3" x="271.5" y="191.23" width="23.03" height="4" transform="translate(-15.27 24.52) rotate(-4.83)"/><path class="cls-3" d="M263.38,314.79l-.95-.3c5.77-18.33,2.53-39.57-1.83-59.79-.71-3.28-1.51-6.54-2.29-9.69-2.08-8.47-4.05-16.46-4.19-24.48-.32-19.41,6.34-45.34,6.41-45.6l1,.25c-.07.26-6.7,26.06-6.38,45.33.13,7.91,2.09,15.85,4.16,24.26.78,3.16,1.59,6.42,2.3,9.72C266,274.85,269.23,296.24,263.38,314.79Z"/><polygon class="cls-5" points="249.39 145.17 261.01 176.05 277.01 148.8 266.47 131.56 249.39 145.17"/><polygon class="cls-3" points="261.01 176.05 282.71 170.06 277.01 148.8 261.01 176.05"/><polygon class="cls-3" points="251.97 152.03 240.2 165.19 261.01 176.05 251.97 152.03"/><path class="cls-5" d="M208,238.3s6.88-14.34-7.89-32.81c-8.18-10.24-12-27.92-12-27.92l-12.3,1.88,11.27,58.85Z"/><polygon class="cls-5" points="173.35 159.12 168.31 163.7 175.04 169.64 153.96 169.28 153.51 176.52 175.86 179.44 188.16 177.57 173.35 159.12"/><polygon class="cls-5" points="177.03 170.39 156.8 162.04 155.5 165.64 172.38 172.73 177.03 170.39"/><path class="cls-4" d="M299.21,153.81s27.17,15.47,35.76,73.43l-31.53,7.61Z"/><polygon class="cls-5" points="240.18 107.44 229.92 133.7 237.77 136.12 240.18 150.91 265.24 145.17 268.86 105.02 240.18 107.44"/><polygon class="cls-6" points="263.27 118.89 238.11 112.74 241.32 105.6 263.6 109.56 263.27 118.89"/><path class="cls-7" d="M244.27,132.47l-.65,0a9.49,9.49,0,0,1-6.52-3.4,8.16,8.16,0,0,1-2-6c.41-4,4.6-6.45,10.17-6.06,3.21.23,5.79,1.33,7.28,3.11a5.65,5.65,0,0,1,1.28,4.31l-.25,0,.25,0C253.38,128.33,249.28,132.47,244.27,132.47Zm-.17-15c-4.73,0-8.18,2.24-8.54,5.66a7.71,7.71,0,0,0,1.92,5.64,9,9,0,0,0,6.18,3.22c5,.36,9.23-3.73,9.64-7.62a5,5,0,0,0-1.17-3.93c-1.38-1.65-3.9-2.71-6.92-2.93C244.83,117.45,244.46,117.43,244.1,117.43Z"/><rect class="cls-7" x="259.18" y="114.42" width="0.5" height="13.41" transform="translate(125.55 374.22) rotate(-87.15)"/><polygon class="cls-5" points="331.2 228.15 331.2 275.48 307.6 275.48 305.64 234.32 331.2 228.15"/><polygon class="cls-8" points="228.08 217.45 229.07 184.47 213.78 232.31 228.08 217.45"/><polygon class="cls-6" points="250.61 148.31 265.24 145.17 253.24 155.41 250.61 148.31"/><ellipse class="cls-7" cx="241.95" cy="124.31" rx="1.75" ry="3.65"/><path class="cls-7" d="M246.71,115.42c0-4.89-3.9-1.59-3.9-1.59Z"/><path class="cls-9" d="M242.81,137.1l5.58-1.48S250.77,156.29,242.81,137.1Z"/><path id="Hair_Back" data-name="Hair Back" class="cls-7" d="M100.6,251.82v-.23a32.18,32.18,0,0,1-28.6-32V188.19A32.17,32.17,0,0,1,104.17,156h3A32.16,32.16,0,0,1,139,183.38c5.16,19,11.88,61.74,5,68.44Z"/><path class="cls-10" d="M115.63,226.4s43.94,8.41,45.39,63.15c.29,10.65,6.9,30.48,6.9,30.48H133.83Z"/><path class="cls-11" d="M87.69,224,69.2,228.59,72.84,320H156s-1-68.81-32.36-90.34l-8.08-3.9,1,5.58Z"/><path class="cls-11" d="M69.2,228.59c-22,5.34-16.93,24.07-12.68,61-11,9.5-.45,13.77-.45,13.77C44,317,59.06,320,59.06,320h37.4S91.24,223.24,69.2,228.59Z"/><rect class="cls-10" x="86.49" y="251.41" width="1" height="48.22" transform="translate(-56.65 24.83) rotate(-12.29)"/><path class="cls-5" d="M57.89,320s3.22-15.58,26.05-23.91c18.92-6.92,42.61,10,60.33-7l3.28,19.19L92.67,320Z"/><polygon class="cls-5" points="98.86 207.88 99.11 223.52 117.15 234.81 114.38 219.56 98.86 207.88"/><polygon class="cls-6" points="98.86 207.88 100.65 215.97 115.63 226.4 114.38 219.56 98.86 207.88"/><polygon class="cls-5" points="123.13 177.25 138.06 203.01 129.2 206.88 127.32 223.82 97.26 214.97 99.76 173.9 123.13 177.25"/><polygon class="cls-6" points="102.8 194.49 127.53 184.83 125.8 181.86 101.55 179.7 102.8 194.49"/><ellipse class="cls-7" cx="121.73" cy="195.27" rx="1.63" ry="3.73" transform="translate(-46.9 38.7) rotate(-15.18)"/><path class="cls-7" d="M116.08,190.22s-.85-4.79,3.59-2.48Z"/><polygon class="cls-11" points="81.25 225.57 84.55 220.32 83.12 217.02 91.95 217.6 116.53 231.38 119.04 227.54 119.97 238.2 113.71 234.85 106.76 260.75 81.25 225.57"/><polygon class="cls-10" points="118.49 245.15 104.16 237.81 104.61 236.92 117.45 243.5 117.27 235.94 122.96 240.84 123.71 237.71 124.68 237.94 123.55 242.67 118.33 238.17 118.49 245.15"/><path class="cls-9" d="M122.18,213.63a5,5,0,0,1-1.21-.15,6,6,0,0,1-3.44-2.74l.88-.48a4.44,4.44,0,0,0,6.81,1.34l.54.84A6.71,6.71,0,0,1,122.18,213.63Z"/><path class="cls-4" d="M90.93,309.25h84a4.56,4.56,0,0,1,4.56,4.56v1.66A4.56,4.56,0,0,1,174.9,320H95.49a4.56,4.56,0,0,1-4.56-4.56v-6.22a0,0,0,0,1,0,0Z"/><path class="cls-4" d="M243.09,246.88H145.42a5.77,5.77,0,0,0-5.72,5l-7.87,61.61a5.76,5.76,0,0,0,5.72,6.5h97.68a5.77,5.77,0,0,0,5.72-5l7.87-61.62A5.77,5.77,0,0,0,243.09,246.88Z"/><path class="cls-3" d="M247.82,246.88H150.15a5.78,5.78,0,0,0-5.73,5l-7.86,61.61a5.76,5.76,0,0,0,5.72,6.5H240a5.76,5.76,0,0,0,5.72-5l7.87-61.62A5.76,5.76,0,0,0,247.82,246.88Z"/><ellipse class="cls-9" cx="195.05" cy="283.46" rx="10.15" ry="9.14" transform="translate(-141.55 212.08) rotate(-43.5)"/><line class="cls-12" x1="245.69" y1="319.51" x2="124.11" y2="319.51"/><path class="cls-13" d="M294.87,256.52l44.91.77-9.15-68.84-21.46,2.43s-9.66,14.27-2,25.36C315.75,228.76,294,248.69,294.87,256.52Z"/><path class="cls-14" d="M295.87,256.52h-2c0-2.79,2.42-6.78,5.49-11.84,5.46-9,12.24-20.19,7-27.87-3.3-4.8-4-10.91-2-17.69a34.64,34.64,0,0,1,4-8.8l1.66,1.12c-.09.13-9.19,13.84-2,24.23,6,8.75-1.14,20.56-6.89,30C298.39,250.13,295.87,254.29,295.87,256.52Z"/><path class="cls-14" d="M317.22,231.09s-18.36,18-28,85.93h20.44Z"/><path class="cls-2" d="M365.76,226.07l-8,90.95H298.39l7.39-34.73s-22.6-11.8,11.44-51.2l8.47-4.35L362.44,224Z"/><path class="cls-14" d="M312.54,317.09l-1-.14,5-34c-3.37-5.07.08-11.11.23-11.37l.87.51c0,.06-3.36,5.88-.16,10.45l.11.16Z"/><rect class="cls-14" x="325.62" y="265.75" width="1" height="34.4" transform="translate(33.67 600.58) rotate(-88.31)"/><rect class="cls-14" x="347.78" y="255.74" width="1" height="43.9" transform="translate(-21.81 29.81) rotate(-4.75)"/><path class="cls-2" d="M365.76,226.07s3.28,4.13,7.07,13.69c5.38,13.57,11.8,38.07,11.38,77.26H357.77Z"/><path class="cls-5" d="M384.21,320S371,289.8,337.76,298.45c-36.29,9.44-49.76,7.68-49.76,7.68L285.24,320Z"/><path class="cls-14" d="M349.62,292.1l-11.79,2.64L364.61,320h25.25S379,293.64,349.62,292.1Z"/><rect class="cls-2" x="350.22" y="298.58" width="5.87" height="1" transform="matrix(0.96, -0.29, 0.29, 0.96, -71.91, 116.08)"/><polygon class="cls-5" points="288 306.13 270.75 302.56 258.39 320.02 285.24 320.02 288 306.13"/><polygon class="cls-14" points="317.22 271.8 349.27 239.75 343.31 236.94 365.76 226.07 355.45 219.51 331.47 219.51 317.22 237.32 321.16 238.31 317.22 241.06 317.22 271.8"/><polygon class="cls-5" points="339.63 230.41 350.1 223.17 338.8 197.91 321.28 208.91 326.21 229.87 317.22 271.8 339.63 230.41"/><polygon class="cls-6" points="322.69 214.89 334.98 208.48 324.01 220.49 322.69 214.89"/><polygon class="cls-5" points="300.23 178.31 294.87 208.06 302.92 208.06 311.96 220.49 334.98 208.48 318.88 172.61 300.23 178.31"/><path class="cls-6" d="M299.62,181.38l-.65,3.93a97.72,97.72,0,0,0,11,4.09,79.61,79.61,0,0,0,12.94,3l1.93-2.73Z"/><path class="cls-13" d="M358.92,176.05c-5.31-14.4-11.81-20-11.81-20-13-12.94-35.29,1.42-35.29,1.42-16.57-4-17.17,8.39-17,16.07.35,14.43,38.82,17.3,38.82,17.3l4.73,11.69S333,216.14,337,228.15c3.31,10.15-3.64,23.82-.73,31.08l44-8.92C380.24,220.76,368.53,202.09,358.92,176.05Z"/><path class="cls-14" d="M299.29,183.36c-1.69-.27-4-3.11-5.31-6.6a16.33,16.33,0,0,1,2.54-16.61,11.26,11.26,0,0,1,7.93-4.1c3.63-.35,7,.74,7.65,1.28l-1.29,1.53c-.68-.41-8.39-2.84-12.73,2.55a14.38,14.38,0,0,0-2.32,14.4c1.25,3.43,3.27,5.47,3.85,5.58Z"/><circle class="cls-5" cx="333.64" cy="194.15" r="9.68"/><path class="cls-9" d="M308.93,207l6-1.48S317,222.6,308.93,207Z"/><path class="cls-4" d="M309.78,196.94c-1.6-4.46-2.72-5-3.26-5-1.27.11-2.12,3.62-2.34,5l-.5-.08c.09-.54.91-5.21,2.8-5.38,1.22-.11,2.45,1.63,3.77,5.33Z"/><path class="cls-7" d="M305.41,188s2.32-3.94,5.08,0Z"/><path class="cls-2" d="M215.15,83.18a17.94,17.94,0,1,0-25.37,21.87,25.69,25.69,0,0,1,9.29,8.4l.68,1,13.44-4.84-.13-1.21A26.73,26.73,0,0,1,215,95.84,17.9,17.9,0,0,0,215.15,83.18Z"/><path class="cls-2" d="M215.15,83.18a17.94,17.94,0,1,0-25.37,21.87,25.69,25.69,0,0,1,9.29,8.4l.68,1,13.44-4.84-.13-1.21A26.73,26.73,0,0,1,215,95.84,17.9,17.9,0,0,0,215.15,83.18Z"/><path class="cls-9" d="M202.42,110.79,191.61,95.54v-.17a3.3,3.3,0,0,1,4.12-3,4.13,4.13,0,0,1,.63.14,4.39,4.39,0,0,1,3.46-3.25,3.3,3.3,0,0,1,2.74.67A4.55,4.55,0,0,1,206.36,88h.44l2.91,22.22-1,.13L205.93,89a3.44,3.44,0,0,0-2.63,1.59,7.58,7.58,0,0,1,1,1.59c.92,2,1.29,4.7.34,5.45-.19.15-.71.44-1.46-.16-1.51-1.2-2.09-3.91-1.31-6.18.06-.18.13-.36.2-.53a2.31,2.31,0,0,0-2-.57,3.38,3.38,0,0,0-2.74,2.68A6.31,6.31,0,0,1,200,96.22a1.74,1.74,0,0,1-.18,1.85,1.26,1.26,0,0,1-1.38.16c-1.42-.51-2.42-2.57-2.27-4.69v-.07a2.93,2.93,0,0,0-.6-.15,2.64,2.64,0,0,0-2.13.43,2.5,2.5,0,0,0-.83,1.52l10.59,15ZM197.18,94c0,1.51.72,3,1.63,3.3.26.09.35.06.35,0s.11-.33-.14-1A5.4,5.4,0,0,0,197.18,94Zm5.63-2.38h0c-.63,1.86-.19,4.14,1,5.08a.69.69,0,0,0,.26.14c.27-.24.26-2.32-.72-4.34A7.23,7.23,0,0,0,202.81,91.61Z"/><rect class="cls-7" x="199.52" y="108.31" width="15.94" height="13.17" rx="4.62" transform="translate(-26.64 76.98) rotate(-19.78)"/><rect class="cls-3" x="196.45" y="107.32" width="20.19" height="9.86" transform="translate(-25.8 76.5) rotate(-19.78)"/><rect class="cls-2" x="196.37" y="55.79" width="1" height="11.03" transform="translate(-7.61 34.74) rotate(-9.89)"/><rect class="cls-2" x="179.08" y="62.43" width="1" height="12.69" transform="translate(4.9 149.19) rotate(-45.67)"/><rect class="cls-2" x="164.29" y="89.19" width="10.38" height="1" transform="matrix(1, -0.07, 0.07, 1, -5.96, 12.32)"/><rect class="cls-2" x="210.17" y="67.87" width="9.82" height="1" transform="translate(52.8 225.21) rotate(-61.66)"/><path class="cls-8" d="M358.59,152.54h64.23a5.06,5.06,0,0,0,4.77-4l6.64-36.62a3.28,3.28,0,0,0-3.31-4H366.69a5.06,5.06,0,0,0-4.77,4l-6.64,36.62A3.28,3.28,0,0,0,358.59,152.54Z"/><ellipse class="cls-9" cx="407.51" cy="130.19" rx="4.6" ry="3.84" transform="translate(18.83 308.91) rotate(-42.41)"/><ellipse class="cls-9" cx="394.76" cy="130.19" rx="4.6" ry="3.84" transform="translate(15.49 300.31) rotate(-42.41)"/><ellipse class="cls-9" cx="382" cy="130.19" rx="4.6" ry="3.84" transform="translate(12.15 291.7) rotate(-42.41)"/><polygon class="cls-8" points="393.16 150.13 370.84 163.4 374.84 149.09 393.16 150.13"/><path class="cls-2" d="M151.68,147.11H87.45a5.08,5.08,0,0,1-4.78-4L76,106.45a3.27,3.27,0,0,1,3.31-4h64.23a5.06,5.06,0,0,1,4.77,4L155,143.07A3.28,3.28,0,0,1,151.68,147.11Z"/><polygon class="cls-2" points="128.77 144.71 132.29 157.51 146.54 143.81 128.77 144.71"/><circle class="cls-7" cx="269.06" cy="111.04" r="14.6"/><circle class="cls-7" cx="276.38" cy="127.52" r="13.84"/><circle class="cls-7" cx="288.14" cy="111.36" r="11.06"/><circle class="cls-7" cx="285.26" cy="123.71" r="11.06"/><circle class="cls-7" cx="279.84" cy="104.29" r="14.6"/><circle class="cls-7" cx="270.66" cy="94.19" r="14.6"/><circle class="cls-7" cx="259.32" cy="92.23" r="14.6"/><circle class="cls-7" cx="237.48" cy="100.37" r="11.88"/><path class="cls-13" d="M325,189.81s-3.7,5.36-1,13.07c1.74,5,4.93,11.48,7.52,17.27a9.7,9.7,0,0,1,.24,8H330s1.65-4.19-.75-7.66-10.17-12.75-10.64-20c-.23-3.57-.11-8.11,2-11.46Z"/><circle class="cls-7" cx="239.99" cy="92.42" r="9.07"/><circle class="cls-7" cx="249.72" cy="89.86" r="10.6"/><circle class="cls-7" cx="254.46" cy="100.29" r="14.6"/><path class="cls-5" d="M282.71,128c0,5.66-7.59,10.26-13.26,10.26s-7.27-4.6-7.27-10.26a10.27,10.27,0,1,1,20.53,0Z"/><path class="cls-3" d="M228.67,251.91l-1-.18c.53-2.88-.45-6.28-1.7-10.57-2.22-7.69-5.27-18.22-2.41-34.42a64.4,64.4,0,0,1,2.1-7.58,63.15,63.15,0,0,0,1.93-6.92l1,.17a63.6,63.6,0,0,1-2,7.06,68,68,0,0,0-2.07,7.44c-2.82,16,.19,26.37,2.39,34C228.24,245.3,229.25,248.8,228.67,251.91Z"/><path id="Hair_Front" data-name="Hair Front" class="cls-7" d="M93.81,281.09H48.42c-.32-4.52-1.83-31.46,3.42-41.81,1.78-4.24,6.37-10.42,10.52-18.61s10-15.7,10-34.87c.37-.37,8.91-13.22,11.94-16.75a39.91,39.91,0,0,1,9-7.93,22.23,22.23,0,0,1,11.78-3.61c7.72,0,13.77,1.6,18.47,4.88a35.82,35.82,0,0,1,9,10h0a17.51,17.51,0,0,1-6.84,9.48A62,62,0,0,1,111.5,189c-14.43,4.33-12.87,19.23-12.75,19.22.87,8.74,1,34.54.5,43.31C98.81,257.52,96.46,276.83,93.81,281.09Z"/><path class="cls-5" d="M99.68,206.91a11.87,11.87,0,0,1-7.34,4.59c-5.81.85-11.49-3.74-12.34-9.56s2.09-8.84,7.91-9.68a14.42,14.42,0,0,1,9.89,2.46C98.66,195.79,99.68,206.91,99.68,206.91Z"/><path class="cls-7" d="M44.8,281.18c-.11-1.31-2.57-32.18,7.16-41.1l1.36,1.47c-9,8.27-6.55,39.15-6.52,39.46Z"/><path class="cls-9" d="M109.27,129.86l-10.86-4.12,9.31-4.07a.38.38,0,0,0,.22-.41l-.66-3.76a.38.38,0,0,0-.53-.28l-13.88,6.67a.37.37,0,0,0-.21.4l.54,3.09a.41.41,0,0,0,.23.28l16.23,6.66.14,0a.41.41,0,0,0,.24-.08.36.36,0,0,0,.13-.36l-.66-3.76A.37.37,0,0,0,109.27,129.86Z"/><path class="cls-9" d="M122.06,112.61a.37.37,0,0,0-.29-.14h-3.61a.37.37,0,0,0-.36.27l-6.09,22.37a.4.4,0,0,0,.07.33.37.37,0,0,0,.29.14h3.61a.39.39,0,0,0,.37-.27l6.08-22.37A.37.37,0,0,0,122.06,112.61Z"/><path class="cls-9" d="M139.78,124a.38.38,0,0,0-.23-.29l-16.21-6.54a.38.38,0,0,0-.38.06.4.4,0,0,0-.13.36l.66,3.73a.37.37,0,0,0,.24.29l11.15,4.14-9.6,4.08a.36.36,0,0,0-.22.41l.66,3.76a.4.4,0,0,0,.2.27.35.35,0,0,0,.17,0,.29.29,0,0,0,.16,0l13.91-6.54a.38.38,0,0,0,.21-.4Z"/></g></g></svg>